<?xml version="1.0" encoding="utf-8"?>
<!-- Generator: Adobe Illustrator 28.2.0, SVG Export Plug-In . SVG Version: 6.00 Build 0)  -->
<svg version="1.1" id="Layer_1" xmlns="http://www.w3.org/2000/svg" xmlns:xlink="http://www.w3.org/1999/xlink" x="0px" y="0px"
	 viewBox="0 0 512 512" style="enable-background:new 0 0 512 512;" xml:space="preserve">
<style type="text/css">
	.st0{fill:url(#SVGID_1_);}
	.st1{fill:#FFFFFF;}
	
		.st2{fill:url(#SVGID_00000144310474600957969010000007625870501713712557_);fill-opacity:0.3;stroke:#4F80FF;stroke-miterlimit:10;}
</style>
<linearGradient id="SVGID_1_" gradientUnits="userSpaceOnUse" x1="-9.094947e-13" y1="514" x2="512" y2="2" gradientTransform="matrix(1 0 0 -1 0 514)">
	<stop  offset="0" style="stop-color:#6200EA"/>
	<stop  offset="1" style="stop-color:#03DAC6"/>
</linearGradient>
<path class="st0" d="M100,0h312c55.2,0,100,44.8,100,100v312c0,55.2-44.8,100-100,100H100C44.8,512,0,467.2,0,412V100
	C0,44.8,44.8,0,100,0z"/>
<path class="st1" d="M170,142c0-12.7,14.1-20.5,24.9-13.7l168,104c9.8,6.2,9.8,20.3,0,26.5l-168,104c-10.8,6.7-24.9-1-24.9-13.7V142
	z"/>
<linearGradient id="SVGID_00000064317691094410410130000001082161833893105342_" gradientUnits="userSpaceOnUse" x1="72.5" y1="441.5" x2="439.5" y2="74.5" gradientTransform="matrix(1 0 0 -1 0 514)">
	<stop  offset="0" style="stop-color:#FFFFFF"/>
	<stop  offset="1" style="stop-color:#FFFFFF;stop-opacity:0"/>
</linearGradient>
<path style="fill:url(#SVGID_00000064317691094410410130000001082161833893105342_);fill-opacity:0.3;stroke:#4F80FF;stroke-miterlimit:10;" d="
	M256,439.5c101.3,0,183.5-82.2,183.5-183.5S357.3,72.5,256,72.5S72.5,154.7,72.5,256S154.7,439.5,256,439.5z"/>
</svg>
